<?xml version="1.0" encoding="utf-8"?>
<!-- Generator: Adobe Illustrator 25.4.1, SVG Export Plug-In . SVG Version: 6.00 Build 0)  -->
<svg version="1.1" id="Capa_1" xmlns="http://www.w3.org/2000/svg" xmlns:xlink="http://www.w3.org/1999/xlink" x="0px" y="0px"
	 viewBox="0 0 16 16" style="enable-background:new 0 0 16 16;" xml:space="preserve">
<style type="text/css">
	.st0{fill:#FFFFFF;}
</style>
<path class="st0" d="M4,0.5C4,0.2,3.8,0,3.5,0S3,0.2,3,0.5V1H2C0.9,1,0,1.9,0,3v11c0,1.1,0.9,2,2,2h12c1.1,0,2-0.9,2-2V3
	c0-1.1-0.9-2-2-2h-1V0.5C13,0.2,12.8,0,12.5,0S12,0.2,12,0.5V1H4V0.5z M2.5,3h10.9C13.8,3,14,3.2,14,3.5v1C14,4.8,13.8,5,13.5,5H2.5
	C2.2,5,2,4.8,2,4.5v-1C2,3.2,2.2,3,2.5,3z"/>
</svg>
