<?xml version="1.0" encoding="utf-8"?>
<!-- Generator: Adobe Illustrator 28.4.1, SVG Export Plug-In . SVG Version: 6.00 Build 0)  -->
<svg version="1.1" id="Capa_1" xmlns="http://www.w3.org/2000/svg" xmlns:xlink="http://www.w3.org/1999/xlink" x="0px" y="0px"
	 viewBox="0 0 670.6 670.6" style="enable-background:new 0 0 670.6 670.6;" xml:space="preserve">
<style type="text/css">
	.st0{opacity:0.1;}
	.st1{fill:#D1A278;}
	.st2{fill:#B28564;}
	.st3{fill:#9E7455;}
	.st4{fill:#010101;}
	.st5{fill:#010202;}
	.st6{fill:#FFFFFF;}
	.st7{fill:#E30613;}
</style>
<g id="Capa_2_00000127764827994735626280000002019547291629720230_" class="st0">
	<g id="Capa_1-2">
		<g id="_Grupo_">
			<polygon class="st1" points="589.4,176.5 670.6,308.5 585,306.9 459.5,304.6 334.5,97.6 			"/>
			<polygon class="st2" points="585,306.9 585,469.6 334,573 334.5,97.6 459.5,304.6 			"/>
			<polygon class="st3" points="334.5,97.6 334,573 80.4,469.2 79.6,306.7 217.8,303.7 			"/>
			<polygon class="st1" points="334.5,97.6 217.8,303.7 79.6,306.7 0,308.4 75.5,177.9 			"/>
		</g>
		<path class="st4" d="M644.2,314.2c-3.6-8.6-8.3-16.4-16.4-22.1c1.3-0.3,2.3-0.6,3.2-0.9c5.1-1.7,9.6-4.4,11.6-9.7
			c4.3-11.3-2.8-22.6-14.8-23.7c-9.6-0.9-19.3-0.2-29-0.4c-0.8,0-1.6,0.2-2.4,0.4c-2.4,0.4-4.2,2.3-4.5,4.7
			c-0.2,1.2-0.3,2.4-0.3,3.6v47.4c0,1.1,0.1,2.3,0.3,3.4c0.3,3.3,3.3,5.7,6.6,5.4c0.5-0.1,1-0.2,1.5-0.4c3-0.9,4.5-3.2,4.5-7.2
			c0-6.4,0-12.9,0-19.4c0-1.4,0.3-1.9,1.8-1.7c0.7,0.1,1.4,0.1,2.2,0c5.5-0.4,9.7,1.9,12.6,6.5c3.6,5.7,7,11.4,10.5,17
			c0.8,1.5,2,2.8,3.3,3.8c2.4,1.6,5.6,1.5,7.9-0.1C645,319.3,645.5,317.3,644.2,314.2z M610.5,284.5c-1.9,0-4.4,0.8-5.6-0.3
			s-0.3-3.7-0.3-5.6c0-3.2,0.1-6.4,0-9.7c0-1.6,0.5-1.9,1.9-1.8c2.4,0.1,4.8,0,7.7,0c2.9,0.1,6.2-0.2,9.6,0.5
			c3.8,0.6,6.7,3.8,6.9,7.6c0.2,4.5-1.7,7.1-6,8.4C620.1,285,615.3,284.5,610.5,284.5L610.5,284.5z"/>
		<path class="st4" d="M500.5,322.3c-5.5-0.2-10.7-0.8-15.4-3.5c-5-2.7-8.7-7.4-10-13c-0.4-1.3-0.4-2.7,0-4.1
			c0.6-2.2,2.4-3.8,4.6-4.1c2-0.4,4.1,0.5,5.3,2.2c1.4,1.9,2.1,4.2,3.1,6.2c4.2,9,18.5,7.6,23,2.3c2.9-3.2,2.5-8.2-0.7-11
			c-0.4-0.3-0.8-0.6-1.2-0.9c-2.8-1.8-6.1-2.5-9.3-3.2c-5.4-1.4-10.8-2.5-15.7-5.4c-7.8-4.5-10.4-14.4-6-22.2
			c0.7-1.3,1.6-2.4,2.7-3.5c8.8-8.6,29.6-8.3,38.1,0.5c2.4,2.3,3.8,5.5,3.9,8.8c0,2.6-1.6,4.9-4,5.8c-2.6,0.8-4.8,0-6.4-2.5
			c-0.9-1.4-1.6-3-2.6-4.4c-3.9-6-14.6-7.2-19.8-2.2c-3,2.9-2.8,7,0.8,9.5c2.6,1.9,5.7,2.6,8.7,3.3c4.6,1,9.2,2.4,13.7,4
			c7.2,2.8,12.1,7.4,12.4,15.5c0.3,8.7-3.5,15-11.3,18.8C509.9,321.6,505.1,322.1,500.5,322.3z"/>
		<path class="st4" d="M581,314.5c-1.4-1.3-2.9-2.5-4.5-3.7c-1.7-1.2-2.1-2.2-0.9-4c1.4-2.1,2.4-4.4,2.9-6.9
			c0.5-2.7-0.3-4.5-2.5-5.3s-3.9-0.1-5.2,2.5c-1,1.9-1.8,3.9-2.8,6c-3.3-3.3-6-6.7-8.8-10.1c2.4-1.4,4.7-3.1,6.8-5
			c5.6-5.5,4.5-13.8-2.4-17.5c-5.4-3-12-2.9-17.3,0.3c-5.2,2.9-6.9,8.8-4.4,14.2c0.8,1.8,1.9,3.6,3.2,5.1c1.2,1.3,0.8,1.8-0.5,2.4
			c-1.9,0.9-3.6,2.1-5.2,3.5c-8.6,7.3-6.7,19.9,3.7,24.2c8.6,3.5,16.9,2.7,24.3-3.3c1.1-0.9,1.7-0.9,2.8,0c1.9,1.7,3.9,3.2,6,4.5
			c2,1.3,4.7,0.7,6-1.3C583.4,318.4,583,316.3,581,314.5z M550.4,277.6c0.9-1.7,2.5-2.7,4.4-2.9c3.2,0,5.1,1.1,6,3.2
			c1,2.4,0.2,4.4-1.6,6.1c-4.3,4-5.5,3.9-8.5-1.3C549.9,281.2,549.4,279.4,550.4,277.6z M561.4,311.3c-2.6,2.1-5.3,3.7-8.8,3.7
			c-3.8,0.1-7.3-2.2-8.6-5.8c-1.3-3.4-0.2-6.7,3.1-9.4c0.1-0.1,0.1-0.1,0.2-0.1c3.2-2.6,3.2-2.6,5.9,0.6c2.5,3.1,5.3,6.1,8.2,8.9
			C562.4,310,562.5,310.5,561.4,311.3L561.4,311.3z"/>
		<path class="st4" d="M117.8,287.3c9.9-7.1,16.3-7.1,22.4,0.3c2.6-2.6,5.3-4.7,9.1-5.3c2.7-0.5,5.5-0.2,8.1,0.9
			c4.1,1.6,6.1,4.8,6.4,9.1c0.4,7.7,0.2,15.5,0.1,23.2c0,3.9-2,5.9-5,5.8s-4.8-2.3-4.9-6c0-5,0-10,0-15c0-1.6,0-3.1,0-4.6
			c-0.2-3.9-1.6-6-4.4-6.3c-3.5-0.3-6.7,2-7.6,5.4c-0.5,2.4-0.7,5-0.6,7.5c-0.1,4.4,0,8.7-0.1,13.1c0,2.4-0.5,4.7-3.2,5.7
			c-2.3,1-5,0-6-2.3c-0.1-0.3-0.3-0.7-0.3-1c-0.3-1.3-0.4-2.5-0.3-3.8c0-6.1,0-12.2-0.1-18.4c0-3.7-1.4-5.7-4-6
			c-3.9-0.5-6.5,1.1-7.7,4.6c-0.8,2.8-1.1,5.7-1,8.6c0,4.2,0,8.4,0,12.6c0,3.4-1.2,5.2-3.6,5.9c-2.3,0.7-4.8-0.4-5.8-2.7
			c-0.2-0.4-0.3-0.9-0.3-1.4c-0.4-10.3-0.4-20.6,0-30.9c0.1-2.6,1.9-4,4.3-4c2.4-0.1,4.4,1.7,4.6,4.1
			C117.8,286.5,117.8,286.9,117.8,287.3z"/>
		<path class="st4" d="M61.5,294.3v-19.4c0-4.5,1.8-6.3,6.3-6.4c9.3,0,18.5,0,27.8,0c1.7,0,3.4,0.3,4.4,2c1.1,1.8,0.6,4.3-1.3,5.4
			c-0.4,0.2-0.8,0.4-1.2,0.5c-0.9,0.2-1.9,0.3-2.8,0.3c-6.9,0-13.7,0.1-20.6,0c-2-0.1-2.4,0.6-2.3,2.4c0.1,2.7,0.1,5.5,0,8.2
			c0,1.6,0.4,2,2,2c6.6-0.1,13.2,0,19.8,0c3.2,0,4.8,1.4,4.8,3.9s-1.6,3.8-4.8,3.9c-6.4,0.1-12.7,0.1-19.1,0c-2.2,0-2.8,0.6-2.8,2.8
			c0.2,3.4,0.1,6.8,0,10.2c0,1.6,0.3,2.2,2.1,2.2c7.4-0.1,14.8,0,22.3,0c3.3,0,5,1.3,5.2,3.8c0.3,1.9-1,3.8-2.9,4.1
			c-1,0.2-2.1,0.3-3.1,0.3H68.5c-5.3,0-7-1.7-7-6.9C61.5,307.1,61.5,300.6,61.5,294.3z"/>
		<path class="st4" d="M296.9,285.1c-0.5-2-2.3-3.3-4.4-3.1c-1.9-0.1-3.7,1.2-4.1,3.1c-0.3,0.9-0.4,1.9-0.6,3
			c-4.2-5.4-9.3-7.1-15.6-5.8c-6,1.3-9.7,5.1-11.6,10.8c-1.9,5.6-1.8,11.8,0.3,17.3c3,8,10.3,12,18.5,10.2c3.2-0.7,5.8-2.6,8.6-5
			v10.1c-0.1,2.2,0,4.3,0.3,6.5c0.2,2,2,3.5,4,3.4c2,0.2,3.9-1.1,4.3-3.1c0.3-1.2,0.5-2.5,0.5-3.8v-40.6
			C297.3,287.1,297.2,286.1,296.9,285.1z M285.5,310.1c-3.7,5.6-11.4,5.4-14.5-0.4c-2.7-4.8-2.8-10.7-0.2-15.6
			c3.1-6.2,11.3-6.3,14.9-0.4c1.5,2.6,2.2,5.5,1.9,8.5C287.8,305,287,307.7,285.5,310.1L285.5,310.1z"/>
		<path class="st4" d="M210,295.5c-2.2-9.5-10-14.9-18.8-13.1c-3.8,0.8-6.4,3.1-9,6c-0.2-1.2-0.3-2-0.5-2.9
			c-0.4-2.1-2.4-3.6-4.6-3.4c-2.6,0.1-4.2,1.9-4.2,5.2c0,14.3,0,28.5,0,42.8c0.1,0.8,0.2,1.6,0.3,2.4c0.3,2.4,1.8,3.3,4,3.3
			c2,0.2,3.9-1.2,4.3-3.2c0.3-1.6,0.5-3.2,0.4-4.8c0-4.1,0-8.1,0-12.8c0.7,0.7,1,0.9,1.2,1.2c7.2,8.5,21.7,6,25.8-5.5
			C210.8,305.9,211.2,300.6,210,295.5z M199.5,308.8c-1.4,3.1-3.7,5.1-7.2,5.2c-3.8,0.2-6.4-1.6-8.3-4.8c-1.3-2.4-1.8-5-1.6-7.7
			c-0.1-2.5,0.4-5,1.6-7.3c1.8-3.2,4.4-5,8.2-4.9c3.2,0,6.1,2.1,7.2,5.1C201.6,299,201.6,304.2,199.5,308.8z"/>
		<path class="st4" d="M253.3,316c-1.6-4.6-1.7-9.3-1.5-14.1c0-2.5,0.1-5,0-7.5c-0.3-7.1-3.1-10.7-9.5-12.1c-4.8-1.1-9.8-1-14.6,0.3
			c-4.1,1.2-7.6,3.2-9,7.5c-0.9,2.7-0.2,4.6,1.8,5.6c2.2,1.1,3.8,0.6,5.3-2.1c2.3-4,5.6-5.6,10-5.3c4.3,0.2,5.8,1.6,6.5,5.9
			c0.2,1.5-0.1,2.1-1.6,2.5c-5.5,1.2-11,2.3-16.4,3.8c-4.7,1.2-8,5.6-7.7,10.4c0.3,4.9,4,9,8.8,9.9c5.1,1.1,10.4,0,14.7-2.9
			c2.9-1.8,2.8-1.7,5.1,0.9c0.4,0.4,0.7,0.8,1.2,1.2c1.3,1.4,3.5,1.7,5.1,0.6C253.1,319.6,254,318,253.3,316z M234.7,314.7
			c-1.6,0.5-3.4,0.4-5-0.1c-2.1-0.6-3.5-2.5-3.6-4.6c-0.2-2.1,1.1-4,3.1-4.6c1.4-0.5,2.9-1,4.4-1.3c2.8-0.6,5.6-1.2,8.6-1.9
			C242.9,309.3,240.5,313.4,234.7,314.7L234.7,314.7z"/>
		<path class="st4" d="M384,308.6c-1.7-1.4-3.6-1-5.2,0.6c-1.5,1.6-3.3,2.9-5.1,4c-6.5,3.6-13.6,0.1-14.9-7.2
			c-0.3-1.8,0.2-2.2,1.9-2.1c2.9,0.1,5.8,0,9.3,0c3.1-0.2,6.8,0.3,10.5-0.3c4.1-0.7,5.2-2.1,5-6.2c-0.3-8.2-6-14.2-14.8-15.5
			c-10.1-1.5-18.5,3.7-21,13.1c-0.8,3.2-1,6.5-0.6,9.8c0.7,8,5.7,13.9,13.4,15.8c3.8,1,7.7,1,11.5,0.1c4.3-1.1,8.2-3.1,10.4-7.2
			C385.1,311.8,385.6,309.9,384,308.6z M358.8,297c0.2-5,4.4-8.8,9.3-8.7c1,0,2,0.2,2.9,0.6c3.1,1.5,5.1,4.6,5.2,8
			c0,1.2-0.7,1-1.4,1c-2.4,0-4.8,0-7.3,0H360C359.5,298.1,358.7,298.3,358.8,297L358.8,297z"/>
		<path class="st4" d="M332.1,314.9c-3.4,4.2-7.5,6.2-12.4,6.3c-7.5,0.1-12.4-4.2-12.6-11.6s-0.1-15.1,0-22.7c0-2.9,1.8-4.7,4.4-4.9
			c2.5-0.3,4.7,1.5,5,3.9c0,0.2,0,0.4,0,0.5c0.2,4.2,0.1,8.4,0.2,12.6c0,2.5,0,5,0.2,7.5c0.3,4.6,2.3,7.2,5.7,7.4
			c4.3,0.3,8.1-2.6,8.9-6.9c0.6-3.1,0.3-6.1,0.4-9.1c0.1-3.5,0-6.9,0-10.4c0.1-3,1.3-4.8,3.6-5.3c2.4-0.7,4.8,0.7,5.6,3
			c0.3,1.1,0.5,2.2,0.4,3.3v27.8c-0.2,3.1-1.7,4.8-4.3,4.9s-4.2-1.4-4.7-4.5C332.2,316.2,332.1,315.6,332.1,314.9z"/>
		<path class="st4" d="M408.6,321.3c-4.3-0.1-8.2-0.7-11.7-3c-2.4-1.4-4.1-3.8-4.6-6.5c-0.5-1.8,0.5-3.7,2.3-4.4
			c1.7-0.8,3.7-0.3,4.8,1.2c0.5,0.7,1,1.5,1.5,2.2c2.8,3.8,7.9,5.2,12.3,3.3c1.5-0.7,2.8-1.6,2.9-3.5c0.1-1.8-1-3.5-2.8-4.1
			c-2.9-1.3-6-1.8-9-2.8c-2.4-0.6-4.7-1.6-6.9-2.9c-5.7-3.7-6.3-10.6-1.2-15.2c2.4-2,5.4-3.3,8.5-3.6c4.7-0.7,9.6,0.1,13.9,2.2
			c2.1,0.9,3.7,2.6,4.6,4.7c0.7,1.8,0.6,3.6-1.1,4.8c-1.6,1.2-3.8,1.2-5.4-0.1c-1-0.9-1.9-1.9-2.8-3c-2.7-2.7-6.8-3.4-10.2-1.6
			c-2.8,1.5-2.8,4.2-0.1,5.9c2.2,1.4,4.8,1.7,7.3,2.4c3,0.7,5.9,1.6,8.7,2.9c3.3,1.7,5.8,4.1,5.9,8.2c0,4.4-1.7,8-5.7,10.2
			C416.2,320.8,412.3,321.1,408.6,321.3z"/>
		<path class="st4" d="M417.7,357.6c0,6-0.3,6.5-6,8.6c-4,1.6-8.4,2-12.5,0.9c-5.8-1.5-9.4-5.3-10.7-11.2
			c-1.6-7.2,0.6-14.6,5.8-17.9c5.1-3.3,11.5-3.8,17-1.3c2.3,1,4.2,2.9,5.1,5.2c0.7,1.7,0.4,3.2-1.4,4.1c-1.8,0.8-3,0-3.8-1.4
			c-1.6-2.8-3.8-4.7-7.3-4.6c-4.5,0.1-7.5,2.2-8.8,6.4c-1,3.1-1,6.4-0.1,9.5c1.5,5.4,6.1,7.9,11.9,6.6c0.9-0.2,1.7-0.5,2.5-0.8
			c2.3-0.9,3.4-3.4,2.6-5.7c-0.3-0.8-0.9-0.5-1.4-0.6c-1.5,0-2.9,0.1-4.4,0s-2.8-0.6-2.6-2.5s1.4-2.3,2.9-2.3c2.3,0,4.5,0,6.8,0
			c3.5,0.1,4.5,1,4.5,4.5L417.7,357.6z"/>
		<path class="st4" d="M496.7,337.8c0-1.4-1.2-2.4-2.5-2.4c-1.3-0.1-2.4,0.8-2.6,2.1c-0.2,1-0.3,2.1-0.3,3.1c0,2.2,0,4.4,0,6.9
			c-0.9-0.7-1.5-1.2-2-1.6c-4.1-3.1-9.8-2.2-12.9,1.8c-0.6,0.8-1,1.6-1.3,2.5c-1.4,3.8-1.3,8,0.3,11.8c1.6,4.1,5.8,6.4,10.1,5.6
			c2.2-0.5,4.2-1.7,5.7-3.4c0.1,0.5,0.2,0.8,0.3,1c0.3,1.5,1.2,2.8,3,2.5s2.4-1.6,2.4-3.3v-25.6
			C496.8,338.4,496.8,338.1,496.7,337.8z M485.2,363.4c-3.2-0.2-5.4-3.2-5.4-7.6c0-4.2,2.1-7.2,5-7.4c3.7-0.3,6.2,2.7,6.2,7.5
			C491.1,360.6,488.8,363.6,485.2,363.4z"/>
		<path class="st4" d="M343.6,335.3c-1.8-0.1-2.5,1.2-2.7,2.8c-0.1,1-0.2,1.9-0.1,2.9v6.4c-0.9-0.7-1.5-1.2-2-1.6
			c-4.1-3-9.8-2.2-12.9,1.8c-0.6,0.8-1,1.6-1.3,2.5c-1.4,3.8-1.3,8,0.3,11.8c1.6,4.1,6,6.5,10.3,5.5c2.1-0.4,3.7-1.6,5.5-3.3
			c0.4,2.1,1,3.8,3.1,3.5s2.4-2.2,2.4-4.1v-25.1C346.2,336.6,345.5,335.4,343.6,335.3z M339.8,360c-0.7,2.2-2.7,3.6-5,3.4
			c-2.1,0-4-1.4-4.8-3.4c-0.5-1.1-0.7-2.2-0.8-3.3c-0.1-1.8,0.3-3.7,1.1-5.4c1.1-2.5,4.1-3.6,6.6-2.5c1.1,0.5,1.9,1.3,2.4,2.4
			C340.9,353.9,341.1,357.1,339.8,360z"/>
		<path class="st4" d="M523.8,364.2c-1-2.8-0.9-5.7-0.9-8.6c0.1-1.6,0-3.2-0.1-4.8c-0.3-3.3-1.9-5.4-4.9-6.1c-2-0.6-4.1-0.7-6.2-0.6
			c-3.1,0.4-6.2,1-8.1,4c-0.9,1.4-1.5,3,0.3,4.3s2.7,0,3.7-1.4c1.7-2.4,4.8-3.4,7.5-2.4c1.4,0.5,2.3,1.9,2.2,3.4
			c0,1.4-1.4,1.1-2.2,1.3c-2.7,0.7-5.5,1.2-8.2,1.8c-3.2,0.8-5.1,3.1-5.1,6.1s1.9,5.2,5.2,6.1c2.8,0.8,5.8,0.2,8.2-1.5
			c1.8-1.1,2.9-1.6,4.1,0.6c0.6,1.1,1.9,1.6,3,1l0.1-0.1C523.6,366.8,524.3,365.5,523.8,364.2C523.8,364.3,523.8,364.3,523.8,364.2z
			 M510.8,363.9c-1.6,0-3-1.2-3.1-2.8c-0.3-1.5,0.7-2.9,2.2-3.1h0.1c2.4-0.7,4.8-1.2,7.4-1.8C517.6,361.5,515.2,364.3,510.8,363.9
			L510.8,363.9z"/>
		<path class="st4" d="M561,364c-1-2.8-0.9-5.6-0.8-8.4c0-0.8,0-1.6,0-2.4c0-6.3-1.4-8.2-7.5-9c-4.3-0.6-8.6-0.2-11.6,3.6
			c-1.1,1.4-1.8,3.1,0,4.5s2.8,0,3.8-1.4c1.7-2.3,4.8-3.2,7.5-2.2c1.3,0.6,2.1,1.9,2.1,3.3c0.1,1.5-1.3,1.2-2.1,1.4
			c-2.7,0.6-5.5,1.2-8.2,1.8c-3.3,0.8-5.2,3.1-5.2,6.1s1.9,5.3,5.1,6.2c3,0.8,6.2,0.2,8.7-1.6c1.5-1,2.4-1.3,3.5,0.5
			c0.5,1.2,1.9,1.8,3.1,1.3c0.1-0.1,0.2-0.1,0.4-0.2c1.2-0.5,1.8-2,1.3-3.2C561,364.1,561,364.1,561,364z M548,363.9
			c-1.6,0-3-1.2-3.2-2.8c-0.2-1.5,0.8-2.9,2.2-3.1h0.1c2.4-0.7,4.8-1.2,7.3-1.8C554.9,361.5,552.4,364.3,548,363.9L548,363.9z"/>
		<path class="st4" d="M470.5,364c-1-2.8-0.8-5.6-0.9-8.4c0-1.6,0.1-3.2,0-4.8c-0.3-3.3-1.8-5.3-4.6-6.1c-2.2-0.6-4.4-0.9-6.7-0.6
			c-3.1,0.4-6.2,1.1-8,4.2c-0.8,1.4-1.3,2.9,0.4,4.1s2.7,0.1,3.7-1.3c1.7-2.4,4.7-3.4,7.5-2.4c1.4,0.5,2.4,1.9,2.2,3.4
			c0,1.5-1.4,1.2-2.2,1.4c-2.7,0.6-5.5,1.2-8.2,1.8c-3.3,0.8-5.1,3.1-5.1,6.1s1.9,5.2,5.1,6.1c3,0.8,6.2,0.2,8.7-1.7
			c1.6-1.1,2.5-1.1,3.5,0.6c0.6,1.2,2,1.7,3.2,1.2c0,0,0,0,0.1,0C470.8,366.6,471,365.4,470.5,364z M457.6,363.9
			c-1.6,0.1-3-1.1-3.2-2.7c-0.3-1.9,0.9-2.9,2.4-3.3c2.4-0.7,4.8-1.2,7.2-1.7C464.5,361.4,462.1,364.3,457.6,363.9L457.6,363.9z"/>
		<path class="st4" d="M598.7,364.2c-1-2.8-0.9-5.6-0.9-8.4c0-1.7,0.1-3.4,0-5c-0.3-3.3-2-5.4-4.9-6.1c-2-0.5-4-0.7-6-0.5
			c-3.2,0.4-6.4,0.9-8.3,4c-0.9,1.4-1.5,3,0.4,4.3s2.7-0.1,3.6-1.4c1.7-2.4,4.8-3.3,7.5-2.3c1.3,0.5,2.2,1.8,2.2,3.2
			c0.1,1.7-1.4,1.3-2.2,1.5c-2.6,0.7-5.3,1.2-7.9,1.8c-3.3,0.8-5.2,3-5.3,6s1.8,5.4,5.2,6.3c2.9,0.8,6,0.2,8.5-1.6
			c1.6-1.1,2.6-1.4,3.7,0.6c0.5,1.2,1.9,1.7,3.1,1.1c0.1,0,0.2-0.1,0.2-0.1C598.7,366.9,599.3,365.4,598.7,364.2L598.7,364.2z
			 M585.8,363.9c-1.6,0-3-1.1-3.2-2.7c-0.3-1.9,0.9-2.9,2.5-3.3c2.4-0.6,4.7-1.1,7.2-1.6C592.7,361.4,590.3,364.3,585.8,363.9
			L585.8,363.9z"/>
		<path class="st4" d="M642.8,364.1c-1-2.8-0.9-5.6-0.9-8.4c0-1.7,0.1-3.4,0-4.9c-0.3-3.4-2.1-5.5-5.2-6.1c-1.8-0.5-3.6-0.6-5.5-0.5
			c-3.2,0.3-6.4,0.8-8.4,3.8c-1,1.4-1.7,3.1,0.3,4.5c1.8,1.2,2.7-0.1,3.6-1.5c1.7-2.4,4.8-3.3,7.5-2.3c1.3,0.5,2.1,1.8,2.1,3.2
			c0.1,1.7-1.4,1.3-2.2,1.5c-2.7,0.7-5.5,1.2-8.2,1.8c-2.9,0.5-5,3.1-5,6c0,3,1.8,5.3,5,6.2c3,0.8,6.2,0.2,8.7-1.6
			c1.6-1.1,2.6-1.4,3.7,0.6c0.5,1.2,1.9,1.7,3.1,1.1c0.1,0,0.2-0.1,0.2-0.1C642.8,366.9,643.4,365.4,642.8,364.1
			C642.8,364.2,642.8,364.2,642.8,364.1z M630.2,363.9c-1.9,0-3.3-0.9-3.6-2.9s1.2-2.9,2.9-3.3c2.2-0.6,4.5-1.1,6.9-1.5
			C636.6,361.5,634.5,364,630.2,363.9z"/>
		<path class="st4" d="M371.9,360.3c-1-0.8-2.1-0.4-3,0.5c-1,1-2.2,1.9-3.5,2.6c-2.9,1.5-6.4,0.3-7.9-2.6c-0.2-0.4-0.4-0.9-0.5-1.3
			c-0.3-1.3-0.2-1.9,1.4-1.9c3.4,0.1,6.8,0,10.2,0c3.7,0,4.6-1.1,4.3-4.7c-0.6-6.6-7.8-10.5-14.8-8.1c-5.2,1.8-8,7.3-6.9,13.4
			s5.1,9.6,12.3,9.6c2.8-0.2,6.3-0.9,8.5-4.2C372.6,362.5,373.1,361.2,371.9,360.3z M357.5,351.4c0.9-2.2,3.3-3.5,5.7-3
			c2.2,0.5,3.8,2.2,4.2,4.4c0.1,0.9,0,1.4-1,1.3c-1.5,0-3,0-4.4,0h-2.7C356.6,354.2,356.4,353.9,357.5,351.4L357.5,351.4z"/>
		<path class="st4" d="M438.6,364.3c-1.8,1.4-3.3,2.8-5.6,3.2c-5.2,1.1-9.1-1.5-9.4-6.8c-0.2-4.5-0.1-9,0-13.6c0-1.7,0.8-3,2.7-3.1
			c1.5-0.1,2.8,1.1,2.9,2.6c0,0.1,0,0.2,0,0.3c0.1,1.7,0.1,3.5,0.1,5.3c0,2.3,0,4.5,0.1,6.8c0.1,2.9,1.4,4.2,3.5,4.4
			c2.4,0.2,4.6-1.5,5.2-3.8c0.3-2,0.5-4,0.4-6c0-2.3,0-4.5,0-6.8c-0.1-1.4,1.1-2.7,2.5-2.7c0.1,0,0.2,0,0.3,0c1.4-0.1,2.6,1,2.7,2.4
			c0,0.1,0,0.3,0,0.4c0,2.3,0,4.7,0,7v10.6c0,1.7-0.6,3.1-2.5,3.2s-2.6-1-2.8-2.7C438.8,364.8,438.7,364.6,438.6,364.3z"/>
		<path class="st5" d="M572.2,358.9c0,3.7,0.1,7.4,0,11.1c-0.1,3.8-3.3,6.8-7.1,6.7c-1.3,0-2.5-0.4-3.6-1.1
			c-0.9-0.5-1.3-1.5-1.1-2.5c0.1-1,1-1.7,2-1.6c4-0.3,4-0.3,4-4.3v-18.3c0-0.7,0-1.5,0.1-2.2c0-1.5,1.2-2.7,2.6-2.7
			c0.1,0,0.2,0,0.2,0c1.8,0,2.7,1.2,2.8,3C572.2,351,572.2,355,572.2,358.9L572.2,358.9z"/>
		<path class="st5" d="M528.8,351.5v-12.3c0-1.9,0.4-3.6,2.7-3.8c1.8-0.1,3,1.3,3,3.9c0,8.2,0,16.5,0,24.7c0,1.9-0.5,3.6-2.7,3.9
			c-1.8,0.2-2.9-1.3-3-3.9C528.7,359.8,528.8,355.6,528.8,351.5z"/>
		<path class="st4" d="M609.8,347.2c3.2-3.4,5.4-4,8.6-2.2c1.2,0.7,2.2,1.5,1.6,3.1c-0.6,1.5-1.9,1.7-3.2,1.3
			c-4.5-1.5-5.9,0.4-6.5,4.4c-0.5,3.1-0.2,6.2-0.2,9.4c0,0.9-0.1,1.8-0.3,2.6c-0.4,1.4-1.9,2.3-3.3,1.8c-0.9-0.3-1.6-1-1.9-1.9
			c-0.2-0.4-0.3-0.9-0.3-1.4c0-5.6,0-11.1,0-16.6c-0.1-1.1,0.3-2.1,1-2.9C606.9,343.1,609,344.1,609.8,347.2z"/>
		<path class="st4" d="M337.2,386.1h303.6c1.4-0.1,2.7,0,4.1,0.3c2.8,0.8,4.2,2.6,4.2,5.4c0.2,2.6-1.6,4.9-4.2,5.5
			c-1.1,0.3-2.2,0.4-3.3,0.3H33c-4.7,0-7.3-1.9-7.5-5.4c-0.1-3.2,1.4-5.2,4.5-5.9c1.2-0.2,2.4-0.3,3.6-0.3
			C134.9,386.1,236.1,386.2,337.2,386.1z"/>
		<path class="st6" d="M597.8,329.4c-2.4,0-4.8-0.7-6.9-2c-3.2-2-5.4-5.4-6-9.2c-0.3-1.5-0.4-3-0.4-4.6v-47.4c0-1.6,0.1-3.2,0.4-4.7
			v-0.1c0.7-5.2,4.7-9.4,9.8-10.4c1.3-0.4,2.7-0.5,4.1-0.6c3.2,0.1,6.5,0,9.7,0c6.6-0.2,13.2,0,19.8,0.4
			c13.3,0.9,23.4,12.4,22.5,25.8c-0.2,2.6-0.8,5.1-1.7,7.5c-1.6,4.3-4.6,8-8.5,10.4c4.2,5.1,7.6,10.8,10,17c2.5,5.9,1.2,11.3-3.5,15
			l0,0c-4.8,3.5-11.2,3.7-16.2,0.4l-0.1-0.1c-2.1-1.6-3.8-3.5-5.1-5.8c-1.5-2.4-3-4.8-4.5-7.2c-2-3.2-4-6.6-6.1-9.8
			c-0.8-1.4-2-2.5-3.5-3c0,4.6,0,9.3,0,14c-0.1,9.9-6.7,13-9.5,13.8H602C600.6,329.2,599.3,329.4,597.8,329.4z M605.3,300.7
			L605.3,300.7z M598.6,287.4v3.4c0.4-0.6,0.8-1.2,1.3-1.7C599.4,288.5,599,288,598.6,287.4L598.6,287.4z M611.6,277.5
			c0.8,0,1.6,0,2.3,0c3.3,0.1,6.2,0.1,8.7-0.6c0.3-0.1,0.7-0.2,1-0.4c0.1-0.3,0.1-0.7,0-1c0-0.2-0.1-0.8-1.3-1.1
			c-1.7-0.3-3.5-0.4-5.2-0.3c-1,0-2.1,0-3.1,0h-2.4c0,0.2,0,0.5,0,0.7C611.7,275.7,611.7,276.6,611.6,277.5L611.6,277.5z"/>
		<path class="st6" d="M500.5,329.3h-0.2c-6.1-0.2-12.5-0.9-18.6-4.4c-6.7-3.7-11.6-10-13.3-17.4c-0.7-2.6-0.7-5.3,0.1-7.8
			c1.2-4.1,4.4-7.3,8.5-8.6c-4.3-3.8-7-9-7.6-14.6c-0.9-7.2,1.7-14.3,6.9-19.4c5.5-5.4,14.3-8.4,24.2-8.3s18.5,3.4,23.9,8.9
			c3.9,4.1,5.9,8.7,5.9,13.7c0,4.6-2.3,8.8-6.2,11.2c5.6,4.1,8.9,10.6,9,17.6c0.4,11.5-4.9,20.3-15.2,25.4
			c-5.8,2.9-11.7,3.5-16.8,3.7L500.5,329.3z M492.3,298.5c0.6,1.1,1,2.1,1.4,3c0.2,0.6,0.5,1.1,0.7,1.5c0.8,1.6,2.7,2.2,4.1,2.4
			c3.4,0.4,6.4-0.9,7.1-1.6c0.2-0.2,0.3-0.5,0.3-0.8c-0.1-0.3-0.3-0.6-0.6-0.8c-1.9-1-3.9-1.7-6-2l-1.1-0.3h-0.1l-1.7-0.4
			C495.1,299.2,493.7,298.9,492.3,298.5z M496.1,272.5c1.5,0.6,3,1.1,4.6,1.5l0.8,0.2l1.7,0.4l1.4,0.4c-0.2-0.3-0.3-0.5-0.5-0.8
			c-1.1-1.2-2.6-2-4.3-2.1C498.5,271.9,497.3,272.1,496.1,272.5L496.1,272.5z"/>
		<path class="st6" d="M553,329.4c-4.3,0-8.6-0.9-12.6-2.6c-6.9-2.7-12-8.9-13.2-16.2c-1.1-7.5,1.8-15,7.6-19.8
			c0.5-0.4,1-0.8,1.5-1.2c-0.2-0.5-0.5-1-0.7-1.5V288c-4-8.8-0.9-18.6,7.4-23.3c7.4-4.3,16.5-4.5,24-0.4c5.1,2.6,8.6,7.4,9.5,13.1
			c0.5,3.4,0,6.8-1.5,9.9c1.2,0.1,2.4,0.3,3.6,0.8c5.4,2,8.1,7.1,6.9,13.2c-0.4,2.1-1.1,4.1-2,6c0.8,0.6,1.5,1.3,2.2,1.9l0.1,0.1
			l0,0c4.6,4.1,5.4,10.1,2.2,14.9c-3.4,5.1-10.3,6.5-15.5,3.3c-1.3-0.8-2.6-1.7-3.9-2.7C563.9,327.7,558.5,329.3,553,329.4z
			 M561.5,311.3L561.5,311.3z M540,294.9L540,294.9z M555.1,280.4l-0.7,0.3c0.2,0.4,0.5,0.8,0.9,1c0.4,0,0.8-0.2,1.1-0.5
			L555.1,280.4z M555.1,280.4l1.3,0.8c0.2-0.3,0.3-0.6,0.3-0.9c-0.2-0.1-0.5-0.2-0.8-0.2L555.1,280.4z M554.3,280
			c0,0.2,0,0.5,0.1,0.7l0.7-0.3L554.3,280z M554.3,280l0.8,0.4l0.9-0.4C555.4,279.9,554.8,279.9,554.3,280L554.3,280z"/>
		<path class="st6" d="M113.5,328.4c-4.7,0-9-2.9-10.8-7.2c-0.6-1.3-0.9-2.6-0.9-4c-0.4-11.2-0.4-21.4,0-31.4
			c0.1-6,5.1-10.8,11.2-10.7h0.1c2.6,0,5.1,0.8,7.2,2.4c5.4-2.6,12.8-4.3,20.1,0.8c2.3-1.5,5-2.5,7.7-3c4-0.6,8.1-0.2,11.8,1.4
			c6.4,2.5,10.4,8.1,10.8,15.3c0.4,7,0.3,13.9,0.2,20.6c0,1,0,2.1,0,3.1c-0.1,5-2.1,8-3.8,9.6c-4.9,4.4-12.4,4.1-16.9-0.8
			c-1.2-1.3-2-2.8-2.6-4.4c-1,3.5-3.7,6.3-7.1,7.5c-3.2,1.2-6.9,1-9.9-0.6c-2.8-1.6-4.9-4.3-5.6-7.4c-1,4-4,7.2-8.1,8.4
			C115.9,328.2,114.7,328.4,113.5,328.4z M115.9,317L115.9,317z M115.9,286.4L115.9,286.4z"/>
		<path class="st6" d="M95.4,327.3H68.5c-9.1,0-14-4.8-14-13.9c0-6.4,0-12.9,0-19.1v-19.4c0-8.3,5-13.3,13.2-13.4
			c9.3,0,18.7,0,27.9,0c5.9,0,8.9,2.9,10.4,5.4c3.1,5.2,1.4,12-3.8,15.1c-0.9,0.5-1.9,0.9-2.9,1.2l-0.3,0.1c4,1.6,6.6,5.6,6.5,9.9
			c0,5.3-3.6,10.8-11.7,10.9h-0.1H91c-3.9,0-8,0.1-12,0v0.9c3.9,0,7.8,0,11.7,0h5.5c8.5,0,11.9,5.6,12.2,10.4
			c0.5,5.2-2.9,10.1-8,11.3C98.8,327.2,97.1,327.4,95.4,327.3z"/>
		<path class="st6" d="M292.6,342.7h-0.3c-5.3,0.1-9.9-3.7-10.8-9c-0.4-2-0.5-4-0.5-6l0,0c-1.8,0.4-3.7,0.6-5.5,0.6
			c-9.5,0-17.6-5.7-21.1-15.2c-2.6-7-2.7-14.7-0.4-21.9c2.7-8.4,8.5-13.8,16.8-15.6c5-1.2,10.3-0.6,14.9,1.7
			c1.9-1.5,4.3-2.3,6.7-2.3c5.1-0.3,9.7,3,11.2,7.9c0.5,1.7,0.7,3.5,0.7,5.3v40.6c0,1.9-0.2,3.8-0.7,5.6c0,0,0,0.1,0,0.2
			C302.2,339.6,297.7,342.9,292.6,342.7z M278.2,296.3L278.2,296.3c-0.3,0-0.8,0.1-1.1,0.9c-1.6,2.9-1.5,6.3,0.1,9.2
			c0.2,0.4,0.6,0.7,1,0.8c0.6,0,1.1-0.4,1.4-0.9c0.7-1.1,1.1-2.4,1-3.8c0-0.2,0-0.3,0-0.5c0.1-2.7-0.4-3.8-0.9-4.6
			C279.5,296.7,278.9,296.3,278.2,296.3L278.2,296.3z"/>
		<path class="st6" d="M177.3,342.8c-5.9,0-10.1-3.7-11-9.4v-0.1c0,0-0.1-0.3-0.1-0.4c-0.2-0.9-0.3-1.9-0.3-2.8c0-4.8,0-9.5,0-14.3
			c0-9.4,0-19.1,0-28.6c0-7,4.4-11.9,10.9-12.2c2.8-0.1,5.5,0.7,7.7,2.4c1.6-0.9,3.4-1.5,5.2-1.9c12.7-2.6,24,5.2,27.1,18.4
			c1.5,6.4,1.1,13-1.2,19.1c-2.7,7.7-9.3,13.4-17.4,14.8c-3.1,0.6-6.2,0.5-9.2-0.2v0.2c0,2.1-0.2,4.2-0.6,6.2v0.1
			C187.2,339.4,182.6,343,177.3,342.8z M199.5,308.8L199.5,308.8z M191.7,296.4c-0.5,0-0.9,0.1-1.6,1.3c-0.5,1.2-0.7,2.5-0.6,3.8
			v0.2c-0.2,1.4,0.1,2.7,0.6,4c0.8,1.4,1.3,1.4,1.9,1.4h0.1c0.4,0,0.6,0,1.1-1c1.3-2.7,1.3-5.9,0-8.7c-0.4-0.9-0.6-0.9-1.1-0.9
			L191.7,296.4z"/>
		<path class="st6" d="M249.2,328.3c-2.8,0-5.6-1.1-7.6-3.1l0,0c-5.4,2.9-11.7,3.8-17.7,2.5c-7.9-1.6-13.8-8.3-14.3-16.4
			c-0.3-4.4,1.2-8.8,4.1-12.2c-2.4-2.9-3.1-7-1.6-11.3c2-6,6.6-10,13.8-12c5.9-1.6,12.1-1.7,18-0.4c9.6,2,14.6,8.3,15.1,18.6l0,0
			c0.1,1.8,0,3.6,0,5.4c0,0.8,0,1.6,0,2.4c0,0.1,0,0.2,0,0.3c-0.2,3.8-0.1,7.9,1.1,11.5c1.8,5.1-0.2,10.2-5,13H255
			C253.2,327.7,251.2,328.3,249.2,328.3z M246.7,318.3L246.7,318.3z"/>
		<path class="st6" d="M368.4,328.3c-2.6,0-5.2-0.3-7.7-1c-10.3-2.5-17.9-11.4-18.6-22c-0.5-4.1-0.2-8.3,0.9-12.3
			c3.4-12.8,15.3-20.3,28.9-18.2c12.1,1.9,20.3,10.6,20.8,22.2c0.3,3-0.4,6-2,8.6c1.7,2.7,2.3,6.5,0,11c-2.9,5.4-7.9,9.1-14.9,10.8
			C373.3,328,370.9,328.3,368.4,328.3z"/>
		<path class="st6" d="M336.8,328.4c-2.6,0-5.1-0.8-7.2-2.5c-3.1,1.6-6.5,2.4-9.9,2.4c-11.5,0.2-19.4-7.2-19.8-18.4
			c-0.2-7.7-0.1-15.5-0.1-23c0.1-6.5,4.6-11.3,10.9-11.8c3.1-0.3,6.2,0.7,8.6,2.8c2.4,2.1,3.8,5.1,4,8.2l0,0
			c0.2,3.1,0.2,6.2,0.2,9.2c0,1.2,0,2.5,0,3.7v1.9c0,1.9,0,3.6,0.1,5.3c0,0.2,0,0.4,0.1,0.6c0.3-0.3,0.6-0.6,0.6-1.1
			c0.3-1.7,0.4-3.5,0.3-5.2c0-0.9,0-1.8,0-2.7v-0.1c0-1.6,0-3.2,0-5s0-3.6,0-5.4c0.2-6.1,3.5-10.6,8.9-11.9
			c5.9-1.5,11.9,1.7,13.9,7.4c0.6,1.8,0.9,3.8,0.8,5.7v27.8c0,0.2,0,0.4,0,0.5c-0.5,6.7-4.8,11.2-11,11.4L336.8,328.4z"/>
		<path class="st6" d="M408.6,328.3h-0.2c-4.3-0.1-10-0.6-15.4-4.1c-4.1-2.4-6.9-6.5-7.7-11.2c-0.8-3.8,0.6-7.7,3.6-10.2
			c-1.9-2.4-3.1-5.4-3.3-8.4c-0.4-5.2,1.7-10.3,5.6-13.7l0,0c3.5-3,7.8-4.9,12.4-5.3c6.1-0.9,12.4,0.1,17.9,2.9
			c3.7,1.7,6.5,4.8,8,8.5c1.6,4.2,1,8.3-1.6,11.2c2.8,2.8,4.4,6.6,4.3,10.5c0.1,7.2-3.2,13-9.2,16.4c-4.8,2.8-9.8,3.3-14.2,3.5
			L408.6,328.3z M399.2,310.6L399.2,310.6z M421.1,288.3L421.1,288.3z"/>
		<path class="st6" d="M403.9,374.8c-2.2,0-4.4-0.3-6.5-0.8c-8-1.9-14.2-8.3-15.8-16.4c-2.4-10.4,1.2-20.6,8.9-25.4
			c7-4.6,15.8-5.3,23.5-1.8c4.1,1.7,7.3,5,8.9,9.1c1.1,2.7,1.1,5.7-0.2,8.4c1.4,2.2,2.1,4.7,2,7.2v2.5c0,3.3,0,6.7-2.1,9.8
			s-5.3,4.3-8.4,5.4C411,374.1,407.5,374.8,403.9,374.8z"/>
		<path class="st6" d="M494,374.8c-1.5,0-3.1-0.4-4.4-1.1c-0.8,0.3-1.7,0.6-2.6,0.8c-7.6,1.5-15.1-2.6-18-9.8
			c-2.2-5.3-2.4-11.3-0.4-16.8c1.6-4.8,5.5-8.6,10.3-10.1c1.9-0.6,3.9-0.9,5.8-0.8c0-0.3,0.1-0.6,0.1-0.9c0-0.1,0-0.1,0-0.2
			c0.9-4.6,5-7.9,9.7-7.6h0.2c4.7,0.2,8.5,3.8,9,8.5c0.1,0.6,0.1,1.3,0.1,1.9v25.6c0,5.6-3.3,9.6-8.4,10.3
			C494.9,374.7,494.5,374.7,494,374.8z"/>
		<path class="st6" d="M333.2,374.6c-6.5,0-12.4-4-14.8-10c-2.2-5.3-2.4-11.3-0.5-16.8c2.3-6.8,8.9-11.2,16.1-10.9
			c0.8-5.4,4.9-8.9,10-8.6c5.4,0.3,9.2,4.5,9.2,10.2v25.1c0.1,1.8-0.2,3.6-0.9,5.3c-1.3,3.2-4.2,5.4-7.6,5.7c-2,0.2-4-0.1-5.7-1
			c-0.8,0.3-1.6,0.6-2.4,0.7C335.5,374.6,334.3,374.7,333.2,374.6z"/>
		<path class="st6" d="M509.6,374.8c-1.5,0-3-0.2-4.5-0.6H505c-6.2-1.8-10.2-6.6-10.3-12.7c-0.1-2.5,0.6-4.9,1.8-7
			c-1.4-2.6-1.5-6.1,0.9-10.1c3.7-6,10.1-6.9,13.2-7.2h0.1c2.9-0.3,5.8,0,8.6,0.7l0,0c5.8,1.4,9.6,5.9,10.2,12.1
			c0.2,1.5,0.3,3.1,0.2,4.6c0,0.3,0,0.7,0,1v0.4c-0.1,2,0.1,4,0.5,5.9c1.8,4.6-0.3,9.8-4.8,11.8h-0.1c-2.9,1.5-6.4,1.3-9.2-0.4
			C514.2,374.3,512,374.8,509.6,374.8z M525.5,363.2L525.5,363.2z"/>
		<path class="st6" d="M546.8,374.8c-1.5,0-3-0.2-4.5-0.6h-0.1c-6.3-1.8-10.2-6.8-10.2-12.9c0-2.4,0.6-4.7,1.9-6.8
			c-0.5-0.9-0.8-1.9-0.9-2.9c-0.3-2.9,0.6-5.9,2.5-8.1c4.1-5.2,10.2-7.3,18.1-6.2l0,0c3.4,0.5,7.6,1.5,10.5,5c2.6,3.2,3,7.2,3,10.9
			c0,0.2,0,0.3,0,0.5c0,0.6,0,1.3,0,2v0.5c-0.2,1.9,0,3.7,0.4,5.5c1.8,4.4-0.1,9.5-4.3,11.8l-0.1,0.1c-3,1.7-6.7,1.7-9.6-0.2
			C551.5,374.3,549.2,374.8,546.8,374.8z"/>
		<path class="st6" d="M456.4,374.8c-1.5,0-3-0.2-4.4-0.6h-0.1c-6.3-1.8-10.2-6.7-10.2-12.9c0-2.4,0.6-4.8,1.9-6.9
			c-1.3-2.5-1.5-5.9,0.7-9.7c3.5-6.3,10-7.2,13.1-7.6h0.1c3.2-0.3,6.3-0.1,9.4,0.8c5.7,1.6,9.3,6,9.8,12.2c0,0.1,0,0.1,0,0.2
			c0.1,1.3,0.1,2.6,0,3.8c0,0.5,0,0.9,0,1.4s0,0.8,0,1.3c-0.1,1.6,0.1,3.3,0.5,4.9l0,0c1.7,5-0.2,9.9-4.8,12.1
			c-2.9,1.5-6.3,1.3-9.1-0.4C461,374.3,458.7,374.8,456.4,374.8z"/>
		<path class="st6" d="M584.7,374.8c-1.5,0-3-0.2-4.5-0.6c-6.5-1.8-10.5-6.8-10.4-13.2c0-2.3,0.6-4.6,1.8-6.6
			c-1.3-2.7-1.4-6.2,0.9-10c3.8-6.1,10.1-6.9,13.5-7.3c2.8-0.3,5.6,0,8.3,0.7c6,1.4,9.8,6,10.4,12.3c0.1,1.4,0.1,2.8,0,4.1
			c0,0.5,0,1,0,1.5v0.4c-0.1,1.9,0.1,3.8,0.5,5.6c1.8,4.5-0.2,9.6-4.5,11.8l-0.2,0.1c-2.9,1.6-6.5,1.5-9.4-0.3
			C589.3,374.4,587,374.8,584.7,374.8z"/>
		<path class="st6" d="M628.6,374.8c-1.5,0-3.1-0.2-4.6-0.6h-0.1c-6.2-1.8-10.1-6.9-10-13.1c0-2.3,0.7-4.6,1.9-6.6
			c-1.4-2.8-1.4-6.5,1.2-10.4c3.9-5.9,10.2-6.6,13.5-6.9c2.6-0.2,5.1,0,7.6,0.6c6.2,1.3,10.2,5.9,10.7,12.4c0.1,1.4,0.1,2.7,0,4.1
			c0,0.5,0,1,0,1.5v0.4c-0.1,1.9,0.1,3.8,0.5,5.6c1.8,4.5-0.2,9.7-4.5,11.8h-0.1c-2.9,1.6-6.5,1.5-9.3-0.3
			C633.3,374.3,631,374.8,628.6,374.8z"/>
		<path class="st6" d="M363.5,374.8c-10.6,0-17.6-5.6-19.3-15.5c-1.6-9.5,3.1-18.2,11.5-21.1c5.5-2,11.6-1.4,16.6,1.7
			c4.3,2.7,7.1,7.3,7.5,12.4c0.3,2.2,0,4.3-0.8,6.4c1,2.5,0.8,5.5-1.2,8.7l-0.1,0.1c-4.3,6.5-11.4,7.1-13.7,7.3
			C363.9,374.8,363.7,374.8,363.5,374.8z"/>
		<path class="st6" d="M430.8,374.8c-7.6,0.2-13.9-5.8-14.2-13.4c0-0.1,0-0.2,0-0.3c-0.2-3.8-0.1-7.6-0.1-11.3c0-0.9,0-1.8,0-2.6
			c0-5.7,4-9.9,9.5-10.1c3-0.1,5.8,1.1,7.8,3.4c1.9-2.2,4.6-3.4,7.5-3.4c5.3-0.1,9.6,4.1,9.7,9.3c0,0.1,0,0.2,0,0.3l0,0
			c0,2.4,0,4.8,0,7.2v10.6c0,5.7-3.8,9.9-9.1,10.2c-1.8,0.1-3.5-0.3-5.1-1.1c-0.8,0.3-1.7,0.6-2.5,0.8
			C433.2,374.6,432,374.7,430.8,374.8z"/>
		<path class="st6" d="M565.3,383.7c-2.6,0-5.2-0.7-7.4-2.1c-3.4-2-5.1-5.9-4.3-9.7c0.5-3.2,2.8-5.9,5.9-6.9v-16.1
			c0-1,0.1-1.8,0.1-2.6V346c0.4-5.2,4.8-9.1,10-8.9c5.5,0.1,9.4,4.2,9.6,9.8v0.2c0,3.9,0,8,0,11.9c0,1.2,0,2.4,0,3.6
			c0,2.5,0,5.1,0,7.6c-0.1,5-2.9,9.5-7.3,11.9C569.8,383.1,567.6,383.7,565.3,383.7z"/>
		<path class="st6" d="M531.4,374.8c-2.3,0-4.4-0.8-6.1-2.3c-1.6-1.4-3.5-4-3.5-8.5l0,0c0-2.8,0-5.7,0-8.4c0-1.4,0-2.7,0-4.1v-12.3
			c0-7.4,4.7-10.4,9.1-10.8c2.6-0.2,5.3,0.6,7.2,2.4c2.3,2.2,3.5,5.3,3.3,8.4c0,5.5,0,11.1,0,16.5c0,2.7,0,5.5,0,8.2
			c0,7.1-4.6,10.3-8.8,10.8h-0.2C532.1,374.8,531.8,374.8,531.4,374.8z"/>
		<path class="st6" d="M607.1,374.8h-0.4c-4.2-0.1-7.8-2.9-8.9-6.9v-0.1c-0.3-1.1-0.5-2.2-0.5-3.3c0-1.9,0-3.7,0-5.5
			c0-3.6,0-7.4,0-11.1c-0.1-2.9,1-5.7,3-7.8c2.7-2.9,7-3.7,10.6-2c3.5-1.5,7.2-1.1,11,1c5.5,3.1,6,8.2,4.7,11.7
			c-1.4,4-5.3,6.4-9.5,6c0,1,0,2.1,0,3.2s0,2.4,0,3.6c0,0.1,0,0.1,0,0.2v0.4c0,1.3-0.2,2.6-0.5,3.8v0.1
			C615.3,372,611.5,374.9,607.1,374.8z"/>
		<path class="st6" d="M641.6,404.7H33c-10.3,0-14.2-6.5-14.5-12.1c-0.3-6.6,3.5-11.6,10-13c1.7-0.3,3.4-0.5,5.1-0.5
			c101.2,0,204.1,0,303.5,0h304c1.9-0.1,3.8,0.1,5.6,0.6h0.1c6.7,1.9,10.6,8.9,8.7,15.6c-1.2,4.2-4.5,7.5-8.7,8.7
			C645.1,404.5,643.3,404.8,641.6,404.7z"/>
		<path class="st4" d="M644.2,314.2c-3.6-8.6-8.3-16.4-16.4-22.1c1.3-0.3,2.3-0.6,3.2-0.9c5.1-1.7,9.6-4.4,11.6-9.7
			c4.3-11.3-2.8-22.6-14.8-23.7c-9.6-0.9-19.3-0.2-29-0.4c-0.8,0-1.6,0.2-2.4,0.4c-2.4,0.4-4.2,2.3-4.5,4.7
			c-0.2,1.2-0.3,2.4-0.3,3.6v47.4c0,1.1,0.1,2.3,0.3,3.4c0.3,3.3,3.3,5.7,6.6,5.4c0.5-0.1,1-0.2,1.5-0.4c3-0.9,4.5-3.2,4.5-7.2
			c0-6.4,0-12.9,0-19.4c0-1.4,0.3-1.9,1.8-1.7c0.7,0.1,1.4,0.1,2.2,0c5.5-0.4,9.7,1.9,12.6,6.5c3.6,5.7,7,11.4,10.5,17
			c0.8,1.5,2,2.8,3.3,3.8c2.4,1.6,5.6,1.5,7.9-0.1C645,319.3,645.5,317.3,644.2,314.2z M610.5,284.5c-1.9,0-4.4,0.8-5.6-0.3
			s-0.3-3.7-0.3-5.6c0-3.2,0.1-6.4,0-9.7c0-1.6,0.5-1.9,1.9-1.8c2.4,0.1,4.8,0,7.7,0c2.9,0.1,6.2-0.2,9.6,0.5
			c3.8,0.6,6.7,3.8,6.9,7.6c0.2,4.5-1.7,7.1-6,8.4C620.1,285,615.3,284.5,610.5,284.5L610.5,284.5z"/>
		<path class="st4" d="M500.5,322.3c-5.5-0.2-10.7-0.8-15.4-3.5c-5-2.7-8.7-7.4-10-13c-0.4-1.3-0.4-2.7,0-4.1
			c0.6-2.2,2.4-3.8,4.6-4.1c2-0.4,4.1,0.5,5.3,2.2c1.4,1.9,2.1,4.2,3.1,6.2c4.2,9,18.5,7.6,23,2.3c2.9-3.2,2.5-8.2-0.7-11
			c-0.4-0.3-0.8-0.6-1.2-0.9c-2.8-1.8-6.1-2.5-9.3-3.2c-5.4-1.4-10.8-2.5-15.7-5.4c-7.8-4.5-10.4-14.4-6-22.2
			c0.7-1.3,1.6-2.4,2.7-3.5c8.8-8.6,29.6-8.3,38.1,0.5c2.4,2.3,3.8,5.5,3.9,8.8c0,2.6-1.6,4.9-4,5.8c-2.6,0.8-4.8,0-6.4-2.5
			c-0.9-1.4-1.6-3-2.6-4.4c-3.9-6-14.6-7.2-19.8-2.2c-3,2.9-2.8,7,0.8,9.5c2.6,1.9,5.7,2.6,8.7,3.3c4.6,1,9.2,2.4,13.7,4
			c7.2,2.8,12.1,7.4,12.4,15.5c0.3,8.7-3.5,15-11.3,18.8C509.9,321.6,505.1,322.1,500.5,322.3z"/>
		<path class="st4" d="M581,314.5c-1.4-1.3-2.9-2.5-4.5-3.7c-1.7-1.2-2.1-2.2-0.9-4c1.4-2.1,2.4-4.4,2.9-6.9
			c0.5-2.7-0.3-4.5-2.5-5.3s-3.9-0.1-5.2,2.5c-1,1.9-1.8,3.9-2.8,6c-3.3-3.3-6-6.7-8.8-10.1c2.4-1.4,4.7-3.1,6.8-5
			c5.6-5.5,4.5-13.8-2.4-17.5c-5.4-3-12-2.9-17.3,0.3c-5.2,2.9-6.9,8.8-4.4,14.2c0.8,1.8,1.9,3.6,3.2,5.1c1.2,1.3,0.8,1.8-0.5,2.4
			c-1.9,0.9-3.6,2.1-5.2,3.5c-8.6,7.3-6.7,19.9,3.7,24.2c8.6,3.5,16.9,2.7,24.3-3.3c1.1-0.9,1.7-0.9,2.8,0c1.9,1.7,3.9,3.2,6,4.5
			c2,1.3,4.7,0.7,6-1.3C583.4,318.4,583,316.3,581,314.5z M550.4,277.6c0.9-1.7,2.5-2.7,4.4-2.9c3.2,0,5.1,1.1,6,3.2
			c1,2.4,0.2,4.4-1.6,6.1c-4.3,4-5.5,3.9-8.5-1.3C549.9,281.2,549.4,279.4,550.4,277.6z M561.4,311.3c-2.6,2.1-5.3,3.7-8.8,3.7
			c-3.8,0.1-7.3-2.2-8.6-5.8c-1.3-3.4-0.2-6.7,3.1-9.4c0.1-0.1,0.1-0.1,0.2-0.1c3.2-2.6,3.2-2.6,5.9,0.6c2.5,3.1,5.3,6.1,8.2,8.9
			C562.4,310,562.5,310.5,561.4,311.3L561.4,311.3z"/>
		<path class="st4" d="M117.8,287.3c9.9-7.1,16.3-7.1,22.4,0.3c2.6-2.6,5.3-4.7,9.1-5.3c2.7-0.5,5.5-0.2,8.1,0.9
			c4.1,1.6,6.1,4.8,6.4,9.1c0.4,7.7,0.2,15.5,0.1,23.2c0,3.9-2,5.9-5,5.8s-4.8-2.3-4.9-6c0-5,0-10,0-15c0-1.6,0-3.1,0-4.6
			c-0.2-3.9-1.6-6-4.4-6.3c-3.5-0.3-6.7,2-7.6,5.4c-0.5,2.4-0.7,5-0.6,7.5c-0.1,4.4,0,8.7-0.1,13.1c0,2.4-0.5,4.7-3.2,5.7
			c-2.3,1-5,0-6-2.3c-0.1-0.3-0.3-0.7-0.3-1c-0.3-1.3-0.4-2.5-0.3-3.8c0-6.1,0-12.2-0.1-18.4c0-3.7-1.4-5.7-4-6
			c-3.9-0.5-6.5,1.1-7.7,4.6c-0.8,2.8-1.1,5.7-1,8.6c0,4.2,0,8.4,0,12.6c0,3.4-1.2,5.2-3.6,5.9c-2.3,0.7-4.8-0.4-5.8-2.7
			c-0.2-0.4-0.3-0.9-0.3-1.4c-0.4-10.3-0.4-20.6,0-30.9c0.1-2.6,1.9-4,4.3-4c2.4-0.1,4.4,1.7,4.6,4.1
			C117.8,286.5,117.8,286.9,117.8,287.3z"/>
		<path class="st4" d="M61.5,294.3v-19.4c0-4.5,1.8-6.3,6.3-6.4c9.3,0,18.5,0,27.8,0c1.7,0,3.4,0.3,4.4,2c1.1,1.8,0.6,4.3-1.3,5.4
			c-0.4,0.2-0.8,0.4-1.2,0.5c-0.9,0.2-1.9,0.3-2.8,0.3c-6.9,0-13.7,0.1-20.6,0c-2-0.1-2.4,0.6-2.3,2.4c0.1,2.7,0.1,5.5,0,8.2
			c0,1.6,0.4,2,2,2c6.6-0.1,13.2,0,19.8,0c3.2,0,4.8,1.4,4.8,3.9s-1.6,3.8-4.8,3.9c-6.4,0.1-12.7,0.1-19.1,0c-2.2,0-2.8,0.6-2.8,2.8
			c0.2,3.4,0.1,6.8,0,10.2c0,1.6,0.3,2.2,2.1,2.2c7.4-0.1,14.8,0,22.3,0c3.3,0,5,1.3,5.2,3.8c0.3,1.9-1,3.8-2.9,4.1
			c-1,0.2-2.1,0.3-3.1,0.3H68.5c-5.3,0-7-1.7-7-6.9C61.5,307.1,61.5,300.6,61.5,294.3z"/>
		<path class="st4" d="M296.9,285.1c-0.5-2-2.3-3.3-4.4-3.1c-1.9-0.1-3.7,1.2-4.1,3.1c-0.3,0.9-0.4,1.9-0.6,3
			c-4.2-5.4-9.3-7.1-15.6-5.8c-6,1.3-9.7,5.1-11.6,10.8c-1.9,5.6-1.8,11.8,0.3,17.3c3,8,10.3,12,18.5,10.2c3.2-0.7,5.8-2.6,8.6-5
			v10.1c-0.1,2.2,0,4.3,0.3,6.5c0.2,2,2,3.5,4,3.4c2,0.2,3.9-1.1,4.3-3.1c0.3-1.2,0.5-2.5,0.5-3.8v-40.6
			C297.3,287.1,297.2,286.1,296.9,285.1z M285.5,310.1c-3.7,5.6-11.4,5.4-14.5-0.4c-2.7-4.8-2.8-10.7-0.2-15.6
			c3.1-6.2,11.3-6.3,14.9-0.4c1.5,2.6,2.2,5.5,1.9,8.5C287.8,305,287,307.7,285.5,310.1L285.5,310.1z"/>
		<path class="st4" d="M210,295.5c-2.2-9.5-10-14.9-18.8-13.1c-3.8,0.8-6.4,3.1-9,6c-0.2-1.2-0.3-2-0.5-2.9
			c-0.4-2.1-2.4-3.6-4.6-3.4c-2.6,0.1-4.2,1.9-4.2,5.2c0,14.3,0,28.5,0,42.8c0.1,0.8,0.2,1.6,0.3,2.4c0.3,2.4,1.8,3.3,4,3.3
			c2,0.2,3.9-1.2,4.3-3.2c0.3-1.6,0.5-3.2,0.4-4.8c0-4.1,0-8.1,0-12.8c0.7,0.7,1,0.9,1.2,1.2c7.2,8.5,21.7,6,25.8-5.5
			C210.8,305.9,211.2,300.6,210,295.5z M199.5,308.8c-1.4,3.1-3.7,5.1-7.2,5.2c-3.8,0.2-6.4-1.6-8.3-4.8c-1.3-2.4-1.8-5-1.6-7.7
			c-0.1-2.5,0.4-5,1.6-7.3c1.8-3.2,4.4-5,8.2-4.9c3.2,0,6.1,2.1,7.2,5.1C201.6,299,201.6,304.2,199.5,308.8z"/>
		<path class="st4" d="M253.3,316c-1.6-4.6-1.7-9.3-1.5-14.1c0-2.5,0.1-5,0-7.5c-0.3-7.1-3.1-10.7-9.5-12.1c-4.8-1.1-9.8-1-14.6,0.3
			c-4.1,1.2-7.6,3.2-9,7.5c-0.9,2.7-0.2,4.6,1.8,5.6c2.2,1.1,3.8,0.6,5.3-2.1c2.3-4,5.6-5.6,10-5.3c4.3,0.2,5.8,1.6,6.5,5.9
			c0.2,1.5-0.1,2.1-1.6,2.5c-5.5,1.2-11,2.3-16.4,3.8c-4.7,1.2-8,5.6-7.7,10.4c0.3,4.9,4,9,8.8,9.9c5.1,1.1,10.4,0,14.7-2.9
			c2.9-1.8,2.8-1.7,5.1,0.9c0.4,0.4,0.7,0.8,1.2,1.2c1.3,1.4,3.5,1.7,5.1,0.6C253.1,319.6,254,318,253.3,316z M234.7,314.7
			c-1.6,0.5-3.4,0.4-5-0.1c-2.1-0.6-3.5-2.5-3.6-4.6c-0.2-2.1,1.1-4,3.1-4.6c1.4-0.5,2.9-1,4.4-1.3c2.8-0.6,5.6-1.2,8.6-1.9
			C242.9,309.3,240.5,313.4,234.7,314.7L234.7,314.7z"/>
		<path class="st4" d="M384,308.6c-1.7-1.4-3.6-1-5.2,0.6c-1.5,1.6-3.3,2.9-5.1,4c-6.5,3.6-13.6,0.1-14.9-7.2
			c-0.3-1.8,0.2-2.2,1.9-2.1c2.9,0.1,5.8,0,9.3,0c3.1-0.2,6.8,0.3,10.5-0.3c4.1-0.7,5.2-2.1,5-6.2c-0.3-8.2-6-14.2-14.8-15.5
			c-10.1-1.5-18.5,3.7-21,13.1c-0.8,3.2-1,6.5-0.6,9.8c0.7,8,5.7,13.9,13.4,15.8c3.8,1,7.7,1,11.5,0.1c4.3-1.1,8.2-3.1,10.4-7.2
			C385.1,311.8,385.6,309.9,384,308.6z M358.8,297c0.2-5,4.4-8.8,9.3-8.7c1,0,2,0.2,2.9,0.6c3.1,1.5,5.1,4.6,5.2,8
			c0,1.2-0.7,1-1.4,1c-2.4,0-4.8,0-7.3,0H360C359.5,298.1,358.7,298.3,358.8,297L358.8,297z"/>
		<path class="st4" d="M332.1,314.9c-3.4,4.2-7.5,6.2-12.4,6.3c-7.5,0.1-12.4-4.2-12.6-11.6s-0.1-15.1,0-22.7c0-2.9,1.8-4.7,4.4-4.9
			c2.5-0.3,4.7,1.5,5,3.9c0,0.2,0,0.4,0,0.5c0.2,4.2,0.1,8.4,0.2,12.6c0,2.5,0,5,0.2,7.5c0.3,4.6,2.3,7.2,5.7,7.4
			c4.3,0.3,8.1-2.6,8.9-6.9c0.6-3.1,0.3-6.1,0.4-9.1c0.1-3.5,0-6.9,0-10.4c0.1-3,1.3-4.8,3.6-5.3c2.4-0.7,4.8,0.7,5.6,3
			c0.3,1.1,0.5,2.2,0.4,3.3v27.8c-0.2,3.1-1.7,4.8-4.3,4.9s-4.2-1.4-4.7-4.5C332.2,316.2,332.1,315.6,332.1,314.9z"/>
		<path class="st4" d="M408.6,321.3c-4.3-0.1-8.2-0.7-11.7-3c-2.4-1.4-4.1-3.8-4.6-6.5c-0.5-1.8,0.5-3.7,2.3-4.4
			c1.7-0.8,3.7-0.3,4.8,1.2c0.5,0.7,1,1.5,1.5,2.2c2.8,3.8,7.9,5.2,12.3,3.3c1.5-0.7,2.8-1.6,2.9-3.5c0.1-1.8-1-3.5-2.8-4.1
			c-2.9-1.3-6-1.8-9-2.8c-2.4-0.6-4.7-1.6-6.9-2.9c-5.7-3.7-6.3-10.6-1.2-15.2c2.4-2,5.4-3.3,8.5-3.6c4.7-0.7,9.6,0.1,13.9,2.2
			c2.1,0.9,3.7,2.6,4.6,4.7c0.7,1.8,0.6,3.6-1.1,4.8c-1.6,1.2-3.8,1.2-5.4-0.1c-1-0.9-1.9-1.9-2.8-3c-2.7-2.7-6.8-3.4-10.2-1.6
			c-2.8,1.5-2.8,4.2-0.1,5.9c2.2,1.4,4.8,1.7,7.3,2.4c3,0.7,5.9,1.6,8.7,2.9c3.3,1.7,5.8,4.1,5.9,8.2c0,4.4-1.7,8-5.7,10.2
			C416.2,320.8,412.3,321.1,408.6,321.3z"/>
		<path class="st4" d="M417.7,357.6c0,6-0.3,6.5-6,8.6c-4,1.6-8.4,2-12.5,0.9c-5.8-1.5-9.4-5.3-10.7-11.2
			c-1.6-7.2,0.6-14.6,5.8-17.9c5.1-3.3,11.5-3.8,17-1.3c2.3,1,4.2,2.9,5.1,5.2c0.7,1.7,0.4,3.2-1.4,4.1c-1.8,0.8-3,0-3.8-1.4
			c-1.6-2.8-3.8-4.7-7.3-4.6c-4.5,0.1-7.5,2.2-8.8,6.4c-1,3.1-1,6.4-0.1,9.5c1.5,5.4,6.1,7.9,11.9,6.6c0.9-0.2,1.7-0.5,2.5-0.8
			c2.3-0.9,3.4-3.4,2.6-5.7c-0.3-0.8-0.9-0.5-1.4-0.6c-1.5,0-2.9,0.1-4.4,0s-2.8-0.6-2.6-2.5s1.4-2.3,2.9-2.3c2.3,0,4.5,0,6.8,0
			c3.5,0.1,4.5,1,4.5,4.5L417.7,357.6z"/>
		<path class="st4" d="M496.7,337.8c0-1.4-1.2-2.4-2.5-2.4c-1.3-0.1-2.4,0.8-2.6,2.1c-0.2,1-0.3,2.1-0.3,3.1c0,2.2,0,4.4,0,6.9
			c-0.9-0.7-1.5-1.2-2-1.6c-4.1-3.1-9.8-2.2-12.9,1.8c-0.6,0.8-1,1.6-1.3,2.5c-1.4,3.8-1.3,8,0.3,11.8c1.6,4.1,5.8,6.4,10.1,5.6
			c2.2-0.5,4.2-1.7,5.7-3.4c0.1,0.5,0.2,0.8,0.3,1c0.3,1.5,1.2,2.8,3,2.5s2.4-1.6,2.4-3.3v-25.6
			C496.8,338.4,496.8,338.1,496.7,337.8z M485.2,363.4c-3.2-0.2-5.4-3.2-5.4-7.6c0-4.2,2.1-7.2,5-7.4c3.7-0.3,6.2,2.7,6.2,7.5
			C491.1,360.6,488.8,363.6,485.2,363.4z"/>
		<path class="st4" d="M343.6,335.3c-1.8-0.1-2.5,1.2-2.7,2.8c-0.1,1-0.2,1.9-0.1,2.9v6.4c-0.9-0.7-1.5-1.2-2-1.6
			c-4.1-3-9.8-2.2-12.9,1.8c-0.6,0.8-1,1.6-1.3,2.5c-1.4,3.8-1.3,8,0.3,11.8c1.6,4.1,6,6.5,10.3,5.5c2.1-0.4,3.7-1.6,5.5-3.3
			c0.4,2.1,1,3.8,3.1,3.5s2.4-2.2,2.4-4.1v-25.1C346.2,336.6,345.5,335.4,343.6,335.3z M339.8,360c-0.7,2.2-2.7,3.6-5,3.4
			c-2.1,0-4-1.4-4.8-3.4c-0.5-1.1-0.7-2.2-0.8-3.3c-0.1-1.8,0.3-3.7,1.1-5.4c1.1-2.5,4.1-3.6,6.6-2.5c1.1,0.5,1.9,1.3,2.4,2.4
			C340.9,353.9,341.1,357.1,339.8,360z"/>
		<path class="st4" d="M523.8,364.2c-1-2.8-0.9-5.7-0.9-8.6c0.1-1.6,0-3.2-0.1-4.8c-0.3-3.3-1.9-5.4-4.9-6.1c-2-0.6-4.1-0.7-6.2-0.6
			c-3.1,0.4-6.2,1-8.1,4c-0.9,1.4-1.5,3,0.3,4.3s2.7,0,3.7-1.4c1.7-2.4,4.8-3.4,7.5-2.4c1.4,0.5,2.3,1.9,2.2,3.4
			c0,1.4-1.4,1.1-2.2,1.3c-2.7,0.7-5.5,1.2-8.2,1.8c-3.2,0.8-5.1,3.1-5.1,6.1s1.9,5.2,5.2,6.1c2.8,0.8,5.8,0.2,8.2-1.5
			c1.8-1.1,2.9-1.6,4.1,0.6c0.6,1.1,1.9,1.6,3,1l0.1-0.1C523.6,366.8,524.3,365.5,523.8,364.2C523.8,364.3,523.8,364.3,523.8,364.2z
			 M510.8,363.9c-1.6,0-3-1.2-3.1-2.8c-0.3-1.5,0.7-2.9,2.2-3.1h0.1c2.4-0.7,4.8-1.2,7.4-1.8C517.6,361.5,515.2,364.3,510.8,363.9
			L510.8,363.9z"/>
		<path class="st4" d="M561,364c-1-2.8-0.9-5.6-0.8-8.4c0-0.8,0-1.6,0-2.4c0-6.3-1.4-8.2-7.5-9c-4.3-0.6-8.6-0.2-11.6,3.6
			c-1.1,1.4-1.8,3.1,0,4.5s2.8,0,3.8-1.4c1.7-2.3,4.8-3.2,7.5-2.2c1.3,0.6,2.1,1.9,2.1,3.3c0.1,1.5-1.3,1.2-2.1,1.4
			c-2.7,0.6-5.5,1.2-8.2,1.8c-3.3,0.8-5.2,3.1-5.2,6.1s1.9,5.3,5.1,6.2c3,0.8,6.2,0.2,8.7-1.6c1.5-1,2.4-1.3,3.5,0.5
			c0.5,1.2,1.9,1.8,3.1,1.3c0.1-0.1,0.2-0.1,0.4-0.2c1.2-0.5,1.8-2,1.3-3.2C561,364.1,561,364.1,561,364z M548,363.9
			c-1.6,0-3-1.2-3.2-2.8c-0.2-1.5,0.8-2.9,2.2-3.1h0.1c2.4-0.7,4.8-1.2,7.3-1.8C554.9,361.5,552.4,364.3,548,363.9L548,363.9z"/>
		<path class="st4" d="M470.5,364c-1-2.8-0.8-5.6-0.9-8.4c0-1.6,0.1-3.2,0-4.8c-0.3-3.3-1.8-5.3-4.6-6.1c-2.2-0.6-4.4-0.9-6.7-0.6
			c-3.1,0.4-6.2,1.1-8,4.2c-0.8,1.4-1.3,2.9,0.4,4.1s2.7,0.1,3.7-1.3c1.7-2.4,4.7-3.4,7.5-2.4c1.4,0.5,2.4,1.9,2.2,3.4
			c0,1.5-1.4,1.2-2.2,1.4c-2.7,0.6-5.5,1.2-8.2,1.8c-3.3,0.8-5.1,3.1-5.1,6.1s1.9,5.2,5.1,6.1c3,0.8,6.2,0.2,8.7-1.7
			c1.6-1.1,2.5-1.1,3.5,0.6c0.6,1.2,2,1.7,3.2,1.2c0,0,0,0,0.1,0C470.8,366.6,471,365.4,470.5,364z M457.6,363.9
			c-1.6,0.1-3-1.1-3.2-2.7c-0.3-1.9,0.9-2.9,2.4-3.3c2.4-0.7,4.8-1.2,7.2-1.7C464.5,361.4,462.1,364.3,457.6,363.9L457.6,363.9z"/>
		<path class="st4" d="M598.7,364.2c-1-2.8-0.9-5.6-0.9-8.4c0-1.7,0.1-3.4,0-5c-0.3-3.3-2-5.4-4.9-6.1c-2-0.5-4-0.7-6-0.5
			c-3.2,0.4-6.4,0.9-8.3,4c-0.9,1.4-1.5,3,0.4,4.3s2.7-0.1,3.6-1.4c1.7-2.4,4.8-3.3,7.5-2.3c1.3,0.5,2.2,1.8,2.2,3.2
			c0.1,1.7-1.4,1.3-2.2,1.5c-2.6,0.7-5.3,1.2-7.9,1.8c-3.3,0.8-5.2,3-5.3,6s1.8,5.4,5.2,6.3c2.9,0.8,6,0.2,8.5-1.6
			c1.6-1.1,2.6-1.4,3.7,0.6c0.5,1.2,1.9,1.7,3.1,1.1c0.1,0,0.2-0.1,0.2-0.1C598.7,366.9,599.3,365.4,598.7,364.2L598.7,364.2z
			 M585.8,363.9c-1.6,0-3-1.1-3.2-2.7c-0.3-1.9,0.9-2.9,2.5-3.3c2.4-0.6,4.7-1.1,7.2-1.6C592.7,361.4,590.3,364.3,585.8,363.9
			L585.8,363.9z"/>
		<path class="st4" d="M642.8,364.1c-1-2.8-0.9-5.6-0.9-8.4c0-1.7,0.1-3.4,0-4.9c-0.3-3.4-2.1-5.5-5.2-6.1c-1.8-0.5-3.6-0.6-5.5-0.5
			c-3.2,0.3-6.4,0.8-8.4,3.8c-1,1.4-1.7,3.1,0.3,4.5c1.8,1.2,2.7-0.1,3.6-1.5c1.7-2.4,4.8-3.3,7.5-2.3c1.3,0.5,2.1,1.8,2.1,3.2
			c0.1,1.7-1.4,1.3-2.2,1.5c-2.7,0.7-5.5,1.2-8.2,1.8c-2.9,0.5-5,3.1-5,6c0,3,1.8,5.3,5,6.2c3,0.8,6.2,0.2,8.7-1.6
			c1.6-1.1,2.6-1.4,3.7,0.6c0.5,1.2,1.9,1.7,3.1,1.1c0.1,0,0.2-0.1,0.2-0.1C642.8,366.9,643.4,365.4,642.8,364.1
			C642.8,364.2,642.8,364.2,642.8,364.1z M630.2,363.9c-1.9,0-3.3-0.9-3.6-2.9s1.2-2.9,2.9-3.3c2.2-0.6,4.5-1.1,6.9-1.5
			C636.6,361.5,634.5,364,630.2,363.9z"/>
		<path class="st4" d="M371.9,360.3c-1-0.8-2.1-0.4-3,0.5c-1,1-2.2,1.9-3.5,2.6c-2.9,1.5-6.4,0.3-7.9-2.6c-0.2-0.4-0.4-0.9-0.5-1.3
			c-0.3-1.3-0.2-1.9,1.4-1.9c3.4,0.1,6.8,0,10.2,0c3.7,0,4.6-1.1,4.3-4.7c-0.6-6.6-7.8-10.5-14.8-8.1c-5.2,1.8-8,7.3-6.9,13.4
			s5.1,9.6,12.3,9.6c2.8-0.2,6.3-0.9,8.5-4.2C372.6,362.5,373.1,361.2,371.9,360.3z M357.5,351.4c0.9-2.2,3.3-3.5,5.7-3
			c2.2,0.5,3.8,2.2,4.2,4.4c0.1,0.9,0,1.4-1,1.3c-1.5,0-3,0-4.4,0h-2.7C356.6,354.2,356.4,353.9,357.5,351.4L357.5,351.4z"/>
		<path class="st4" d="M438.6,364.3c-1.8,1.4-3.3,2.8-5.6,3.2c-5.2,1.1-9.1-1.5-9.4-6.8c-0.2-4.5-0.1-9,0-13.6c0-1.7,0.8-3,2.7-3.1
			c1.5-0.1,2.8,1.1,2.9,2.6c0,0.1,0,0.2,0,0.3c0.1,1.7,0.1,3.5,0.1,5.3c0,2.3,0,4.5,0.1,6.8c0.1,2.9,1.4,4.2,3.5,4.4
			c2.4,0.2,4.6-1.5,5.2-3.8c0.3-2,0.5-4,0.4-6c0-2.3,0-4.5,0-6.8c-0.1-1.4,1.1-2.7,2.5-2.7c0.1,0,0.2,0,0.3,0c1.4-0.1,2.6,1,2.7,2.4
			c0,0.1,0,0.3,0,0.4c0,2.3,0,4.7,0,7v10.6c0,1.7-0.6,3.1-2.5,3.2s-2.6-1-2.8-2.7C438.8,364.8,438.7,364.6,438.6,364.3z"/>
		<path class="st4" d="M572.2,358.9c0,3.7,0.1,7.4,0,11.1c-0.1,3.8-3.3,6.8-7.1,6.7c-1.3,0-2.5-0.4-3.6-1.1
			c-0.9-0.5-1.3-1.5-1.1-2.5c0.1-1,1-1.7,2-1.6c4-0.3,4-0.3,4-4.3v-18.3c0-0.7,0-1.5,0.1-2.2c0-1.5,1.2-2.7,2.6-2.7
			c0.1,0,0.2,0,0.2,0c1.8,0,2.7,1.2,2.8,3C572.2,351,572.2,355,572.2,358.9L572.2,358.9z"/>
		<path class="st4" d="M528.8,351.5v-12.3c0-1.9,0.4-3.6,2.7-3.8c1.8-0.1,3,1.3,3,3.9c0,8.2,0,16.5,0,24.7c0,1.9-0.5,3.6-2.7,3.9
			c-1.8,0.2-2.9-1.3-3-3.9C528.7,359.8,528.8,355.6,528.8,351.5z"/>
		<path class="st4" d="M609.8,347.2c3.2-3.4,5.4-4,8.6-2.2c1.2,0.7,2.2,1.5,1.6,3.1c-0.6,1.5-1.9,1.7-3.2,1.3
			c-4.5-1.5-5.9,0.4-6.5,4.4c-0.5,3.1-0.2,6.2-0.2,9.4c0,0.9-0.1,1.8-0.3,2.6c-0.4,1.4-1.9,2.3-3.3,1.8c-0.9-0.3-1.6-1-1.9-1.9
			c-0.2-0.4-0.3-0.9-0.3-1.4c0-5.6,0-11.1,0-16.6c-0.1-1.1,0.3-2.1,1-2.9C606.9,343.1,609,344.1,609.8,347.2z"/>
		<path class="st7" d="M337.2,386.1h303.6c1.4-0.1,2.7,0,4.1,0.3c2.8,0.8,4.2,2.6,4.2,5.4c0.2,2.6-1.6,4.9-4.2,5.5
			c-1.1,0.3-2.2,0.4-3.3,0.3H33c-4.7,0-7.3-1.9-7.5-5.4c-0.1-3.2,1.4-5.2,4.5-5.9c1.2-0.2,2.4-0.3,3.6-0.3
			C134.9,386.1,236.1,386.2,337.2,386.1z"/>
	</g>
</g>
</svg>
