<?xml version="1.0" encoding="UTF-8"?>
<svg id="Capa_2" data-name="Capa 2" xmlns="http://www.w3.org/2000/svg" viewBox="0 0 359.17 409.15">
  <defs>
    <style>
      .cls-1 {
        fill: #828282;
      }

      .cls-1, .cls-2, .cls-3, .cls-4, .cls-5 {
        stroke-width: 0px;
      }

      .cls-2 {
        fill: #b5b5b5;
      }

      .cls-3 {
        fill: #cfcfcf;
      }

      .cls-4 {
        fill: #fefefe;
      }

      .cls-5 {
        fill: #e3e3e3;
      }
    </style>
  </defs>
  <g id="Capa_1-2" data-name="Capa 1">
    <g>
      <path class="cls-5" d="M336.03,409.15H72.64c-15.15-2.83-22.91-12.27-22.97-27.98-.02-6.11-.06-12.22.03-18.33.03-1.96-.12-4.05,1.74-5.46,2.51-1.25,5.21-.88,7.84-.88,75.46-.02,150.92-.02,226.38-.02,1.99,0,3.99.01,5.98-.01,8.79-.1,12.96-4.12,13.26-12.83.1-2.91.81-5.8.1-8.72-.2-40.94-.04-81.89-.09-122.83,0-2.26.06-4.52-.03-6.78-.27-6.74-4.9-11.36-11.7-11.65-2.12-.09-4.25-.04-6.38-.04-75.9,0-151.81,0-227.71-.02-2.75,0-5.62.51-8.14-1.21-1.47-1.63-1.42-3.67-1.42-5.66-.03-53.32-.04-106.63,0-159.95,0-2,.23-3.97.68-5.93C53.27,7.58,62.5.1,76.06.08c31.11-.03,62.22,0,93.33,0,27.52,0,55.04,0,82.56.02,1.43,0,2.93-.38,4.3.38.78,2.03.64,4.16.64,6.27,0,21.66.35,43.33-.11,64.99-.35,16.47,7.06,27.21,23.88,29.75,1.17.35,2.09,1.09,2.92,1.97,22.47,23.66,46.04,46.22,68.91,69.49,2.19,2.22,5.42,3.54,6.29,6.98.43,1.98.36,3.98.36,5.97,0,64.86-.02,129.73.03,194.59,0,9.1-2.63,16.86-9.37,23.27-3.97,3.77-8.8,4.57-13.77,5.4Z"/>
      <path class="cls-1" d="M51.06,345.42c-12.22-.04-24.44-.08-36.66-.13-9.2-.04-14.38-5.13-14.38-14.25-.02-41.59-.02-83.17,0-124.76,0-9.11,5.19-14.2,14.39-14.24,12.22-.05,24.44-.09,36.66-.13,1.73.04,3.45.13,5.18.13,78.19,0,156.39,0,234.58,0,11.03,0,15.67,4.68,15.67,15.8,0,40.43,0,80.86,0,121.29,0,1.86-.07,3.72-.11,5.58-1.45,8.2-5.23,11.56-13.6,12.11-1.46.09-2.92.07-4.39.07-76.57,0-153.13,0-229.7-.02-2.61,0-5.37.49-7.64-1.44Z"/>
      <path class="cls-2" d="M256.25,1.18c33.51,33.55,67.03,67.1,100.54,100.65-.84,2.77-3.26,2.31-5.23,2.34-7.7.13-15.4.05-23.1.05-13.28,0-26.56-.02-39.84.02-2.45,0-4.76-.3-6.89-1.54-15.94-.65-26.3-11.41-26.31-27.35-.01-23.22-.01-46.43.02-69.65,0-1.53-.55-3.22.81-4.53Z"/>
      <path class="cls-3" d="M51.06,345.42c1.73-.04,3.45-.12,5.18-.12,78.17,0,156.34,0,234.51,0,8.88,0,12.52-2.47,15.64-10.59.04,3.59.16,7.18.09,10.77-.15,7.24-5.44,12.41-12.75,12.59-.13,0-.27,0-.4,0-80.73-.01-161.46-.02-242.19-.04-.03-4.2-.06-8.4-.08-12.6Z"/>
      <path class="cls-3" d="M281.73,102.71c23.5-.02,47.01-.04,70.51-.09,1.53,0,3.22.53,4.55-.78,1.18,1.05.77,2.47.77,3.74.01,24.28,0,48.57-.02,72.85-2.45-1.39-4.48-3.27-6.46-5.26-21.14-21.18-42.29-42.34-63.47-63.48-2.17-2.17-4.26-4.37-5.88-6.99Z"/>
      <path class="cls-4" d="M124.43,271.61c0-9.17-.03-18.34.02-27.5.03-4.61,2-7.35,6.4-7.56,10.6-.51,21.32-1.29,31.8.61,16.61,3.01,27.41,17.78,26.73,35.47-.82,21.23-14.43,34.33-35.7,34.35-7.04,0-14.08.04-21.12-.01-5.97-.05-8.1-2.22-8.12-8.25-.04-9.03-.01-18.07,0-27.1Z"/>
      <path class="cls-4" d="M55.76,271.04c0-9.17-.05-18.35.02-27.52.04-5.28,2.47-8.07,7.7-8.12,8.63-.07,17.28-.63,25.89.35,13.96,1.58,23.04,12.78,21.91,26.87-1.17,14.58-10.19,23.25-24.8,23.71-4.65.15-9.31.18-13.95,0-2.68-.11-3.49.85-3.34,3.43.19,3.18.17,6.39-.01,9.57-.28,4.97-2.94,7.81-6.84,7.61-4.03-.2-6.51-3.11-6.55-7.98-.07-9.3-.02-18.61-.02-27.92Z"/>
      <path class="cls-4" d="M203.59,271.38c0-8.9-.03-17.81,0-26.71.02-5.83,1.92-8.17,7.74-8.29,11.69-.24,23.39-.21,35.08-.02,4.91.08,7.56,2.75,7.38,6.53-.19,3.95-3.22,6.58-7.97,6.63-8.5.08-17.01.13-25.51-.03-2.65-.05-3.54.77-3.29,3.36.41,4.19-1.77,9.67.93,12.22,2.15,2.03,7.57.63,11.53.68,3.85.05,7.71.02,11.56.01,1.74,0,3.48.18,5.01,1.03,2.74,1.52,4.62,3.78,4.03,7.07-.64,3.53-3.35,5.09-6.66,5.17-7.57.18-15.15.24-22.72.03-3.06-.09-3.85.86-3.72,3.81.23,5.31.1,10.63.06,15.94-.04,5.28-2.16,8-6.19,8.11-4.55.12-7.22-2.76-7.24-8.03-.05-9.17-.01-18.34-.01-27.51Z"/>
      <path class="cls-1" d="M137.94,271.59c0-6.64.08-13.29-.04-19.93-.04-2.22.59-3.06,2.91-2.96,3.98.17,7.97.14,11.95.03,18.9-.52,25.49,15.22,22.31,28.89-2.48,10.64-9.51,16.39-20.29,16.78-4.64.17-9.3-.05-13.95.09-2.28.07-2.98-.74-2.94-2.97.12-6.64.04-13.29.04-19.93Z"/>
      <path class="cls-1" d="M69.23,260.97c0-3.31.08-6.63-.03-9.94-.06-1.97.5-2.92,2.67-2.86,4.77.13,9.56-.17,14.31.14,7.55.48,12.39,6.04,12.14,13.46-.23,6.78-5.53,11.71-12.87,11.84-4.51.08-9.02-.07-13.52.06-2.1.06-2.8-.7-2.73-2.75.12-3.31.03-6.63.03-9.94Z"/>
    </g>
  </g>
</svg>