<?xml version="1.0" encoding="utf-8"?>
<!-- Generator: Adobe Illustrator 25.4.1, SVG Export Plug-In . SVG Version: 6.00 Build 0)  -->
<svg version="1.1" id="Capa_1" xmlns="http://www.w3.org/2000/svg" xmlns:xlink="http://www.w3.org/1999/xlink" x="0px" y="0px"
	 viewBox="0 0 496 512" style="enable-background:new 0 0 496 512;" xml:space="preserve">
<style type="text/css">
	.st0{fill:#728D9B;}
</style>
<path class="st0" d="M0,64C0,28.7,28.7,0,64,0h160v128c0,17.7,14.3,32,32,32h128v144H176c-35.3,0-64,28.7-64,64v144H64
	c-35.3,0-64-28.7-64-64V64z M384,128H256V0L384,128z M176,352h32c30.9,0,56,25.1,56,56s-25.1,56-56,56h-16v32c0,8.8-7.2,16-16,16
	s-16-7.2-16-16v-48v-80C160,359.2,167.2,352,176,352z M208,432c13.3,0,24-10.7,24-24s-10.7-24-24-24h-16v48H208z M304,352h32
	c26.5,0,48,21.5,48,48v64c0,26.5-21.5,48-48,48h-32c-8.8,0-16-7.2-16-16V368C288,359.2,295.2,352,304,352z M336,480
	c8.8,0,16-7.2,16-16v-64c0-8.8-7.2-16-16-16h-16v96H336z M416,368c0-8.8,7.2-16,16-16h48c8.8,0,16,7.2,16,16s-7.2,16-16,16h-32v32
	h32c8.8,0,16,7.2,16,16s-7.2,16-16,16h-32v48c0,8.8-7.2,16-16,16s-16-7.2-16-16v-64V368z"/>
<image style="overflow:visible;" width="81" height="53" xlink:href="74AAB77E.jpg"  transform="matrix(1 0 0 1 303 -112.61)">
</image>
</svg>
