<?xml version="1.0" encoding="UTF-8"?>
<svg id="Capa_2" data-name="Capa 2" xmlns="http://www.w3.org/2000/svg" viewBox="0 0 287.44 287.38">
  <defs>
    <style>
      .cls-1 {
        fill: #000;
        stroke-width: 0px;
      }
    </style>
  </defs>
  <g id="Capa_1-2" data-name="Capa 1">
    <path class="cls-1" d="M279.97,246c-19.22-19.4-38.56-38.66-57.94-57.9-1.83-1.81-2.07-2.92-.64-5.23,14.74-23.81,20.52-49.69,17.34-77.52C231.93,45.78,180.31.04,119.93,0c-12.3-.02-24.33,1.81-36.03,5.52C8.33,29.46-24.08,118.74,19.81,184.86c27.6,41.59,67.62,59.04,117.36,53.2,16.55-1.94,31.79-7.94,45.85-16.81,2.29-1.44,3.5-1.32,5.24.63,2.82,3.15,5.95,6.04,8.94,9.03,16.22,16.22,32.43,32.45,48.67,48.66,7.03,7.01,15.34,9.58,24.94,6.55,17.38-5.49,22.3-26.87,9.17-40.12ZM119.95,203.53c-46.26.04-83.93-37.64-83.88-83.91.04-46.1,37.62-83.66,83.72-83.7,46.28-.04,83.93,37.62,83.89,83.9-.04,46.09-37.63,83.67-83.72,83.71Z"/>
  </g>
</svg>